#!OML:ASF X:\für Bonn\!DataBase\2005_08_12_Daniel\c3d\Daniel.ASF
:FULLY-SPECIFIED
:DEGREES
77
root 5.57956 14.4132 -4.81406 -1261.66 134.832 175.83
lowerback 71.5559 0.51124 -3.19104
upperback 12.3593 -0.74301 -5.47794
thorax -7.33227 0.875233 -4.80466
lowerneck 7.11267 3.04776 -2.8291
upperneck 8.23713 3.84486 1.41182
head 1.28972 1.85082 0.86467
rclavicle -3.18055e-015 -5.1684e-015
rhumerus -327.801 25.4436 279.712
rradius 28.9619
rwrist 19.8653
rhand -17.7884 735.204
rfingers 7.12502
rthumb 8.47451 705.395
lclavicle -3.18055e-015 -5.1684e-015
lhumerus -327.046 -9.70801 -303.383
lradius 43.6732
lwrist -11.2174
lhand -18.6186 -721.796
lfingers 7.12502
lthumb 7.67333 -331.956
rfemur -60.7361 -31.7514 30.6881
rtibia 81.6086
rfoot 353.688 27.9501
rtoes 15.3914
lfemur -48.981 -0.472933 -16.7711
ltibia 87.3783
lfoot -36.337 -8.97624
ltoes 3.07121
78
root 5.70914 14.3346 -4.77576 -1261.91 135.374 175.504
lowerback 72.2248 0.432605 -3.01033
upperback 12.319 -0.754506 -5.56051
thorax -7.34055 0.887341 -4.98943
lowerneck 7.19784 3.05259 -2.7106
upperneck 8.20535 3.8551 1.37217
head 1.26822 1.85776 0.830321
rclavicle 1.59028e-014 5.24792e-014
rhumerus -326.285 25.5513 280.035
rradius 28.4787
rwrist 20.4353
rhand -17.7884 735.094
rfingers 7.12502
rthumb 8.47453 705.284
lclavicle 1.59028e-014 5.24792e-014
lhumerus -325.394 -9.18125 -304.018
lradius 43.1598
lwrist -11.437
lhand -18.5873 -722.038
lfingers 7.12502
lthumb 7.7035 -332.199
rfemur -62.5855 -32.1543 32.4566
rtibia 80.9397
rfoot 354.95 27.7305
rtoes 14.9108
lfemur -48.9555 -0.34215 -16.7374
ltibia 88.5355
lfoot -37.1077 -8.97118
ltoes 3.293
79
root 5.83827 14.2576 -4.73587 -1262.16 135.923 175.162
lowerback 72.9072 0.368177 -2.85312
upperback 12.2667 -0.768015 -5.64139
thorax -7.35745 0.89737 -5.16262
lowerneck 7.20684 3.07142 -2.56633
upperneck 8.25317 3.88872 1.31145
head 1.28478 1.87633 0.787524
rclavicle -2.8625e-014 4.03533e-014
rhumerus -324.729 25.6906 280.387
rradius 28.0182
rwrist 20.8895
rhand -17.8261 734.958
rfingers 7.12502
rthumb 8.43815 705.147
lclavicle -2.8625e-014 4.03533e-014
lhumerus -323.789 -8.65653 -304.695
lradius 42.6272
lwrist -11.586
lhand -18.6888 -722.217
lfingers 7.12502
lthumb 7.60553 -332.374
rfemur -64.384 -32.4859 34.3025
rtibia 80.2088
rfoot 356.073 27.4161
rtoes 14.0411
lfemur -48.9397 -0.18695 -16.6788
ltibia 89.7024
lfoot -37.7963 -8.97314
ltoes 3.33826
80
root 5.96639 14.1776 -4.69463 -1262.39 136.457 174.845
lowerback 73.636 0.309419 -2.71623
upperback 12.168 -0.793919 -5.7139
thorax -7.42097 0.900115 -5.31538
lowerneck 7.21294 3.09382 -2.40049
upperneck 8.31487 3.92961 1.22479
head 1.30704 1.89876 0.733378
rclavicle -4.6118e-014 2.44505e-014
rhumerus -323.278 25.7921 280.629
rradius 27.639
rwrist 21.2937
rhand -17.8292 734.85
rfingers 7.12502
rthumb 8.43515 705.039
lclavicle -4.6118e-014 2.44505e-014
lhumerus -322.279 -8.13109 -305.373
lradius 42.0849
lwrist -11.783
lhand -18.7913 -722.437
lfingers 7.12502
lthumb 7.50657 -332.59
rfemur -66.1666 -32.8002 36.23
rtibia 79.4392
rfoot 356.977 26.9569
rtoes 12.6293
lfemur -48.9579 -0.00118874 -16.6397
ltibia 90.9081
lfoot -38.3972 -8.97354
ltoes 3.47463
81
root 6.09414 14.0965 -4.65273 -1262.62 136.996 174.555
lowerback 74.3871 0.277662 -2.61855
upperback 12.0657 -0.814523 -5.76368
thorax -7.47981 0.902448 -5.42905
lowerneck 7.1811 3.11362 -2.27986
upperneck 8.35941 3.9649 1.1426
head 1.32943 1.91735 0.688772
rclavicle 4.92986e-014 8.94531e-015
rhumerus -321.845 25.9001 280.878
rradius 27.2795
rwrist 21.7106
rhand -17.8787 734.716
rfingers 7.12502
rthumb 8.38736 704.902
lclavicle 4.92986e-014 8.94531e-015
lhumerus -320.853 -7.61282 -306.048
lradius 41.5629
lwrist -11.938
lhand -18.8966 -722.659
lfingers 7.12502
lthumb 7.40496 -332.808
rfemur -67.7822 -33.0592 38.0607
rtibia 78.6336
rfoot 357.883 26.3865
rtoes 11.5684
lfemur -48.9745 0.216313 -16.6233
ltibia 92.1435
lfoot -38.8813 -8.99263
ltoes 3.44809
82
root 6.22154 14.0139 -4.60907 -1262.83 137.531 174.268
lowerback 75.1146 0.24699 -2.53659
upperback 11.9476 -0.849027 -5.82347
thorax -7.55698 0.89783 -5.54203
lowerneck 7.11469 3.12354 -2.16471
upperneck 8.42219 3.98591 1.10446
head 1.3626 1.92923 0.659908
rclavicle -3.33958e-014 -1.39149e-014
rhumerus -320.428 26.0863 281.172
rradius 26.9951
rwrist 21.9398
rhand -17.9745 734.536
rfingers 7.12502
rthumb 8.29491 704.719
lclavicle -3.33958e-014 -1.39149e-014
lhumerus -319.517 -7.12454 -306.817
lradius 41.0654
lwrist -12.0304
lhand -19.0721 -722.936
lfingers 7.12502
lthumb 7.23554 -333.079
rfemur -69.403 -33.2653 39.9475
rtibia 77.7842
rfoot 358.696 25.5774
rtoes 10.5699
lfemur -49.0596 0.497777 -16.6104
ltibia 93.444
lfoot -39.2818 -8.98666
ltoes 3.37369
83
root 6.34888 13.9301 -4.56428 -1263.04 138.049 174.004
lowerback 75.85 0.215016 -2.46827
upperback 11.835 -0.888726 -5.86533
thorax -7.6225 0.889667 -5.62644
lowerneck 7.00582 3.12777 -2.09421
upperneck 8.47848 3.99658 1.08822
head 1.3997 1.93514 0.646063
rclavicle 3.65764e-014 -2.48481e-014
rhumerus -319.104 26.1789 281.321
rradius 26.7194
rwrist 22.3231
rhand -18.0591 734.353
rfingers 7.12502
rthumb 8.21327 704.533
lclavicle 3.65764e-014 -2.48481e-014
lhumerus -318.188 -6.65656 -307.666
lradius 40.5048
lwrist -11.9958
lhand -19.2071 -723.196
lfingers 7.12502
lthumb 7.10526 -333.335
rfemur -70.951 -33.4844 41.807
rtibia 76.9022
rfoot 359.534 24.6041
rtoes 10.5059
lfemur -49.1693 0.814452 -16.6178
ltibia 94.8076
lfoot -39.5973 -8.9496
ltoes 3.16757
84
root 6.4764 13.8391 -4.51794 -1263.2 138.543 173.788
lowerback 76.5421 0.178494 -2.42234
upperback 11.7251 -0.94612 -5.90313
thorax -7.68679 0.872525 -5.68823
lowerneck 6.84953 3.12755 -1.99163
upperneck 8.58189 4.00524 1.05426
head 1.46063 1.94067 0.623116
rclavicle -1.11319e-014 1.18078e-013
rhumerus -317.842 26.3127 281.471
rradius 26.5
rwrist 22.6452
rhand -18.1913 734.21
rfingers 7.12502
rthumb 8.08573 704.385
lclavicle -1.11319e-014 1.18078e-013
lhumerus -316.887 -6.17622 -308.536
lradius 39.8152
lwrist -12.0021
lhand -19.3579 -723.502
lfingers 7.12502
lthumb 6.95967 -333.636
rfemur -72.4805 -33.6216 43.6014
rtibia 76.0778
rfoot 360.484 23.4474
rtoes 11.2936
lfemur -49.3723 1.17901 -16.6665
ltibia 96.263
lfoot -39.8401 -8.90857
ltoes 2.79702
